<svg version="1.1" viewBox="0.0 0.0 960.0 540.0" fill="none" stroke="none" stroke-linecap="square" stroke-miterlimit="10" xmlns:xlink="http://www.w3.org/1999/xlink" xmlns="http://www.w3.org/2000/svg"><clipPath id="p.0"><path d="m0 0l960.0 0l0 540.0l-960.0 0l0 -540.0z" clip-rule="nonzero"/></clipPath><g clip-path="url(#p.0)"><path fill="#000000" fill-opacity="0.0" d="m0 0l960.0 0l0 540.0l-960.0 0z" fill-rule="evenodd"/><path fill="#000000" fill-opacity="0.0" d="m164.0 42.0l30.992126 0l0 42.015747l-30.992126 0z" fill-rule="evenodd"/><path fill="#b7b7b7" d="m110.82021 185.73753l150.89761 0l0 152.53545l-150.89761 0z" fill-rule="evenodd"/><path fill="#000000" fill-opacity="0.0" d="m287.38974 190.23608l593.2599 0l0 168.06299l-593.2599 0z" fill-rule="evenodd"/><path fill="#595959" d="m335.45224 316.99606q-6.4375 0 -11.953125 0q-5.515625 0 -9.96875 0q-4.453125 0 -7.640625 0q0 -7.109375 0 -13.796875q0 -6.6875 0 -14.84375l0 -29.625q0 -8.343735 0 -15.14061q0 -6.8125 0 -14.046875q7.25 0 16.203125 0q8.953125 0 18.078125 0q8.53125 0 14.359375 1.4375q5.828125 1.4375 9.34375 4.109375q3.53125 2.671875 5.09375 6.390625q1.5625 3.703125 1.5625 8.359375q0 5.578125 -2.09375 9.718735q-2.078125 4.140625 -5.640625 6.8125q-3.546875 2.671875 -8.015625 3.890625l0 1.40625q4.96875 1.046875 9.015625 3.46875q4.046875 2.421875 6.40625 6.6875q2.359375 4.265625 2.359375 10.828125q0 5.390625 -1.75 9.84375q-1.75 4.4375 -5.921875 7.6875q-4.171875 3.25 -11.34375 5.03125q-7.171875 1.78125 -18.09375 1.78125zm-12.75 -13.546875l14.21875 0q6.328125 0 10.28125 -1.4375q3.953125 -1.453125 5.796875 -4.171875q1.84375 -2.734375 1.84375 -6.65625q0 -6.140625 -4.328125 -8.953125q-4.328125 -2.828125 -12.359375 -2.828125l-19.4375 0l0 -12.9375l18.828125 0q5.265625 0 8.671875 -1.625q3.40625 -1.625 5.0 -4.375q1.59375 -2.765625 1.59375 -6.2656097q0 -5.578125 -3.46875 -8.375q-3.46875 -2.796875 -10.453125 -2.796875l-16.1875 0q0 4.546875 0 9.203125q0 4.6562347 0 10.42186l0 22.03125q0 5.453125 0 9.90625q0 4.4375 0 8.859375zm77.273895 14.953125q-5.15625 0 -9.203125 -2.140625q-4.046875 -2.140625 -6.40625 -6.21875q-2.359375 -4.09375 -2.359375 -9.84375q0 -5.09375 1.765625 -8.625q1.78125 -3.53125 4.6875 -5.765625q2.921875 -2.234375 6.453125 -3.453125q3.53125 -1.234375 7.140625 -1.78125l17.484375 -2.578125q0.1875 -4.296875 -1.4375 -6.625q-1.625 -2.328125 -4.640625 -3.21875q-3.0 -0.890625 -6.921875 -0.890625q-2.09375 0 -4.515625 0.34375q-2.421875 0.328125 -5.09375 1.0q-2.65625 0.671875 -5.546875 1.6875q-2.875 1.015625 -5.875 2.421875l-0.75 -13.546875q2.28125 -0.859375 5.125 -1.71875q2.859375 -0.859375 6.21875 -1.5624847q3.375 -0.703125 7.015625 -1.09375q3.65625 -0.40625 7.53125 -0.40625q7.484375 0 12.78125 2.1718597q5.3125 2.171875 8.125 6.9375q2.828125 4.75 2.828125 12.34375q0 2.953125 0 7.3125q0 4.34375 0 7.96875l0 6.734375q0 4.484375 0 9.125q0 4.625 0 10.015625l-13.796875 0l-0.921875 -7.96875l-1.296875 0q-1.71875 2.265625 -4.296875 4.390625q-2.5625 2.109375 -6.09375 3.546875q-3.53125 1.4375 -8.0 1.4375zm5.640625 -12.203125q2.578125 0 5.09375 -1.21875q2.515625 -1.234375 4.6875 -3.4375q2.171875 -2.203125 3.703125 -5.28125l0 -9.625q-0.796875 0.546875 -2.109375 1.015625q-1.3125 0.453125 -3.890625 1.015625q-2.578125 0.546875 -7.234375 1.40625q-2.640625 0.484375 -4.453125 1.65625q-1.8125 1.15625 -2.796875 3.0q-0.96875 1.84375 -0.96875 4.234375q0 3.984375 2.421875 5.609375q2.421875 1.625 5.546875 1.625zm72.85748 12.078125q-10.25 0 -17.390625 -4.125q-7.140625 -4.140625 -10.859375 -11.3125q-3.703125 -7.1875 -3.703125 -16.328125q0 -9.1875 3.484375 -16.453125q3.5 -7.28125 10.34375 -11.46875q6.84375 -4.2031097 16.953125 -4.2031097q3.625 0 7.171875 0.546875q3.5625 0.546875 6.71875 1.5624847q3.171875 1.015625 5.625 2.359375l-1.234375 13.609375q-3.5 -1.953125 -6.421875 -3.0q-2.90625 -1.046875 -5.359375 -1.40625q-2.453125 -0.375 -4.40625 -0.375q-7.734375 0 -12.359375 4.96875q-4.625 4.96875 -4.625 13.4375q0 5.578125 2.203125 9.90625q2.203125 4.3125 6.53125 6.796875q4.328125 2.484375 10.765625 2.484375q2.390625 0 4.78125 -0.421875q2.390625 -0.4375 4.71875 -1.3125q2.328125 -0.890625 4.484375 -2.3125l0.921875 13.625q-2.09375 0.96875 -4.828125 1.75q-2.71875 0.765625 -6.09375 1.21875q-3.375 0.453125 -7.421875 0.453125zm71.07507 -1.28125q-3.125 -3.921875 -6.343811 -7.8125q-3.21875 -3.90625 -6.46875 -7.703125l-8.09375 -9.8125l-4.484375 0l0 -10.546875l4.90625 0l7.0 -8.890625q3.25 -4.046875 6.46875 -8.15625q3.218811 -4.109375 6.406311 -8.156235l18.34375 0q-4.671875 5.4531097 -9.328125 10.92186q-4.65625 5.453125 -9.265625 10.84375l-9.187561 10.734375l-0.6875 -7.046875l11.109436 13.546875q4.78125 5.515625 9.53125 11.078125q4.75 5.546875 9.484375 11.0l-19.390625 0zm-39.546906 0q0 -6.625 0 -12.8125q0 -6.203125 0 -13.796875l0 -33.921875q0 -7.5468597 0 -14.843735q0 -7.296875 0 -14.46875l15.5780945 -1.46875q0 7.234375 0 14.84375q0 7.59375 0 15.937485l0 36.859375q0 6.375 0 11.984375q0 5.609375 0 11.6875l-15.5780945 0zm111.42935 1.53125q-10.546875 0 -19.015625 -3.28125q-8.46875 -3.28125 -14.421875 -9.3125q-5.9375 -6.046875 -9.09375 -14.359375q-3.15625 -8.3125 -3.15625 -18.3125q0 -13.171875 5.359375 -23.437485q5.375 -10.28125 15.234375 -16.140625q9.875 -5.859375 23.5 -5.859375q4.234375 0 8.359375 0.5625q4.140625 0.546875 7.90625 1.53125q3.78125 0.96875 7.0 2.171875q3.21875 1.1875 5.671875 2.546875l-1.34375 16.0625q-4.71875 -2.9375 -9.203125 -4.75q-4.46875 -1.8125 -8.609375 -2.609375q-4.140625 -0.796875 -8.0 -0.796875q-8.09375 0 -14.453125 3.625q-6.34375 3.609375 -9.96875 10.48436q-3.609375 6.859375 -3.609375 16.609375q0 6.328125 1.859375 11.9375q1.875 5.609375 5.609375 9.90625q3.75 4.296875 9.359375 6.71875q5.609375 2.421875 13.09375 2.421875q2.953125 0 5.953125 -0.390625q3.0 -0.40625 6.0 -1.265625q3.015625 -0.859375 5.953125 -2.328125q2.953125 -1.484375 5.828125 -3.5625l1.046875 15.875q-2.578125 1.546875 -5.765625 2.6875q-3.1875 1.125 -6.65625 1.859375q-3.46875 0.734375 -7.15625 1.0625q-3.671875 0.34375 -7.28125 0.34375zm69.97504 0q-8.09375 0 -14.109375 -2.609375q-6.015625 -2.609375 -10.0 -7.140625q-3.984375 -4.53125 -5.953125 -10.359375q-1.953125 -5.828125 -1.953125 -12.203125q0 -9.140625 3.671875 -16.34375q3.6875 -7.21875 10.765625 -11.375q7.09375 -4.1718597 17.265625 -4.1718597q7.859375 0 13.765625 2.4218597q5.921875 2.421875 9.9375 6.78125q4.015625 4.34375 6.03125 10.140625q2.03125 5.796875 2.03125 12.546875q0 9.1875 -3.71875 16.5q-3.703125 7.296875 -10.75 11.5625q-7.046875 4.25 -16.984375 4.25zm-0.0625 -12.875q5.265625 0 8.734375 -2.78125q3.46875 -2.796875 5.1875 -7.21875q1.71875 -4.421875 1.71875 -9.4375q0 -5.890625 -1.9375 -10.15625q-1.921875 -4.265625 -5.484375 -6.5625q-3.5625 -2.296875 -8.28125 -2.296875q-5.21875 0 -8.8125 2.546875q-3.578125 2.546875 -5.390625 6.84375q-1.796875 4.28125 -1.796875 9.625q0 5.015625 1.765625 9.4375q1.78125 4.421875 5.359375 7.21875q3.59375 2.78125 8.9375 2.78125zm66.47467 12.875q-8.453125 0 -14.046875 -4.46875q-5.578125 -4.484375 -8.28125 -11.84375q-2.6875 -7.359375 -2.6875 -15.890625q0 -9.0625 2.875 -16.328125q2.890625 -7.28125 8.53125 -11.46875q5.640625 -4.2031097 13.796875 -4.2031097q3.859375 0 7.046875 1.015625q3.203125 0.99998474 5.671875 2.8124847q2.484375 1.8125 4.203125 4.203125l1.359375 0l0 -5.890625q0 -7.5468597 0 -14.812485q0 -7.265625 0 -14.5l15.578125 -1.46875q0 7.296875 0 14.875q0 7.5625 0 15.906235l0 33.921875q0 7.59375 0 13.796875q0 6.1875 0 12.8125l-13.3125 0l-0.921875 -8.15625l-1.171875 0q-2.328125 3.1875 -5.09375 5.34375q-2.75 2.140625 -6.125 3.234375q-3.375 1.109375 -7.421875 1.109375zm5.640625 -13.421875q2.953125 0 5.34375 -0.953125q2.390625 -0.953125 4.21875 -2.734375q1.84375 -1.78125 3.265625 -4.171875l0 -22.875q-1.484375 -2.078125 -3.484375 -3.515625q-1.984375 -1.453125 -4.34375 -2.21875q-2.359375 -0.765625 -4.875 -0.765625q-5.03125 0 -8.3125 2.546875q-3.28125 2.546875 -4.90625 6.75q-1.625 4.203125 -1.625 9.28125q0 4.84375 1.5625 9.078125q1.578125 4.234375 4.828125 6.90625q3.25 2.671875 8.328125 2.671875zm73.90051 13.421875q-11.53125 0 -18.890625 -4.171875q-7.359375 -4.171875 -10.859375 -11.46875q-3.484375 -7.296875 -3.484375 -16.671875q0 -9.328125 3.34375 -16.53125q3.34375 -7.203125 9.84375 -11.25q6.5 -4.0468597 15.9375 -4.0468597q8.15625 0 13.953125 2.9687347q5.796875 2.96875 8.921875 8.890625q3.140625 5.921875 3.140625 14.875q0 2.390625 -0.09375 4.296875q-0.09375 1.890625 -0.40625 3.734375l-13.546875 -5.453125q0.125 -0.859375 0.171875 -1.75q0.0625 -0.890625 0.0625 -1.6875q0 -6.75 -3.375 -10.578125q-3.359375 -3.828125 -8.703125 -3.828125q-4.046875 0 -7.109375 2.296875q-3.0625 2.296875 -4.84375 6.40625q-1.78125 4.109375 -1.78125 9.5l0 2.390625q0 5.953125 2.078125 10.21875q2.09375 4.265625 6.4375 6.5625q4.359375 2.296875 10.984375 2.296875q2.578125 0 5.796875 -0.453125q3.21875 -0.46875 6.53125 -1.4375q3.3125 -0.984375 6.203125 -2.53125l0.484375 13.375q-2.328125 1.171875 -5.46875 2.09375q-3.125 0.90625 -6.984375 1.421875q-3.859375 0.53125 -8.34375 0.53125zm-27.09375 -29.375l0 -9.75l39.296875 -0.671875l9.203125 3.5l0 6.921875l-48.5 0z" fill-rule="nonzero"/><path fill="#eeeeee" d="m131.12204 158.4987l150.89764 0l0 158.99214l-150.89764 0z" fill-rule="evenodd"/><path fill="#595959" d="m234.5315 158.49869l23.763794 0l0 24.708664l23.763763 0l0 23.763779l-47.527557 0z" fill-rule="evenodd"/><path stroke="#595959" stroke-width="1.0" stroke-linejoin="round" stroke-linecap="butt" d="m234.5315 158.49869l23.763794 0l0 24.708664l23.763763 0l0 23.763779l-47.527557 0z" fill-rule="evenodd"/><path fill="#595959" d="m148.5315 158.49869l61.37558 0l0 73.22835l72.10474 0l0 66.74016l-133.48032 0z" fill-rule="evenodd"/><path stroke="#595959" stroke-width="1.0" stroke-linejoin="round" stroke-linecap="butt" d="m148.5315 158.49869l61.37558 0l0 73.22835l72.10474 0l0 66.74016l-133.48032 0z" fill-rule="evenodd"/></g></svg>